<?xml version="1.0" encoding="utf-8" ?><svg xmlns="http://www.w3.org/2000/svg" xmlns:xlink="http://www.w3.org/1999/xlink" width="500" height="127" viewBox="0 0 500 127"><path fill="#171618" d="M84.6378 37.3059C87.0715 37.2198 89.8454 37.1899 92.2526 37.4028C93.6375 38.6449 95.5502 41.4098 96.7849 42.9405C100.099 47.0494 103.469 52.0705 106.967 55.9337C106.575 50.3288 106.776 43.0366 106.778 37.3267C110.619 37.1215 115.479 37.2473 119.395 37.2432C119.048 50.0702 119.408 62.9782 119.281 75.8133C119.258 78.1276 119.326 80.4595 119.15 82.7678C116.936 82.6297 113.82 82.6761 111.51 82.6386C109.902 81.2831 108.496 79.0729 107.166 77.4539C103.979 73.5767 100.354 67.9127 96.9231 64.4159C97.2237 69.9968 97.0595 76.9835 97.0552 82.6852C92.8736 82.6392 88.6916 82.6279 84.5099 82.6511C84.7397 71.9563 84.3589 60.9004 84.5178 50.1823C84.5536 47.7651 84.3278 39.2389 84.6378 37.3059Z"/><path fill="#171618" d="M264.119 37.1441C268.826 37.1151 273.571 36.9945 278.268 37.2763C302.724 38.7435 302.808 77.8036 280.058 82.3562C277.971 81.8169 265.426 81.3278 264.067 82.4437C264.522 68.0296 264.15 51.7116 264.119 37.1441ZM281.693 67.3186C284.827 62.8319 285.388 54.4084 280.485 50.8453C279.395 50.0528 277.931 49.6833 276.632 49.3501C276.581 51.9807 276.212 67.8313 276.922 69.2409C277.548 69.5417 277.819 69.6075 278.582 69.3478C279.77 68.9365 280.838 68.2397 281.693 67.3186Z"/><path fill="#171618" d="M160.345 37.4914C164.788 37.2237 170.382 37.7734 174.554 37.3583C191.531 35.6694 197.537 55.2089 184.664 64.8646C187.327 69.6717 190.616 77.5116 192.96 82.6902C191.005 82.843 188.121 82.7783 186.098 82.793C183.889 82.7899 181.679 82.7751 179.47 82.7486C177.102 78.5945 175.445 73.0808 172.91 69.0306C173.113 73.5966 173.042 78.2864 173.027 82.8659C169.304 82.7238 164.147 82.7084 160.476 82.8269L160.462 54.6561C160.462 49.0566 160.569 43.0632 160.345 37.4914ZM178.711 56.799C180.46 54.0638 180.86 51.1691 177.813 49.2319C176.28 48.2568 174.816 48.3308 173.069 48.2386C172.974 52.467 171.317 62.1426 178.711 56.799Z"/><path fill="#171618" d="M34.7182 37.4569C40.6389 37.3084 47.1018 37.1433 52.9566 37.5225C63.459 38.2026 67.7671 48.2246 64.7919 57.3761C63.7036 60.7234 61.6 62.7639 58.9759 64.8398C61.7613 70.2655 64.6689 77.1118 67.2106 82.732C65.0548 82.8256 62.5572 82.78 60.375 82.7928C58.1429 82.8133 55.9105 82.7863 53.6796 82.7118C52.02 80.1297 49.2465 72.5506 47.3088 69.025C47.1753 73.5565 47.2651 78.3981 47.2747 82.9522C43.0667 82.728 38.9685 82.7777 34.7557 82.7703C34.423 68.1321 34.5833 52.1159 34.7182 37.4569ZM52.8483 56.9322C54.6335 54.2545 55.1632 51.3454 52.1784 49.3015C50.5898 48.2136 49.1639 48.3423 47.3192 48.2791C47.2661 52.6379 45.3791 61.6974 52.8483 56.9322Z"/><path fill="#171618" d="M235.26 37.3072C239.561 37.1865 244.677 37.2441 248.961 37.3381C253.586 52.3355 257.954 67.6598 262.423 82.7311C258.382 82.7119 253.819 82.8571 249.851 82.5986C249.449 81.6978 248.751 79.2967 248.311 78.1265C246.838 77.3979 238.184 77.7768 235.903 77.8146C235.359 79.4536 234.806 81.0894 234.242 82.7219C230.533 82.8835 225.841 82.6554 221.995 82.6958C225.07 72.5125 228.025 62.2936 230.86 52.041C231.828 48.6226 233.995 40.051 235.26 37.3072ZM239.066 66.1583L242.812 66.1421L245.192 66.1637C244.635 64.2572 242.966 56.801 241.933 56.1201C241.031 59.4813 240.075 62.8278 239.066 66.1583Z"/><path fill="#171618" d="M195.068 37.4368C203.164 37.1989 212.144 37.3918 220.306 37.394C220.266 41.6221 220.273 45.8506 220.326 50.0786C216.195 49.888 211.963 50.2391 207.785 50.0177L207.49 53.3428C210.535 53.469 213.897 53.4434 216.967 53.479C216.68 56.9846 216.754 62.5538 216.916 66.1172C214.486 66.3112 210.052 66.2543 207.624 66.1613L207.66 70.0226C211.885 70.0419 216.11 70.0347 220.335 70.0012C220.313 73.8013 220.246 77.7135 220.386 81.5012C217.59 81.9871 214.927 81.8891 212.102 81.9138C206.781 81.9603 201.447 81.7907 196.129 81.8834C195.74 81.8902 195.417 82.2203 195.119 82.4196C195.605 73.0514 194.965 63.1447 195.199 53.7177C195.33 48.4531 195.293 42.6964 195.068 37.4368Z"/><path fill="#171618" d="M125.262 37.1225L148.214 37.0938C148.241 41.2683 148.228 45.443 148.174 49.6172C146.082 49.5367 143.407 49.6529 141.232 49.6454C141.418 59.0123 141.282 68.7606 141.281 78.1556L141.261 82.611C137.656 82.3721 132.571 82.5193 128.859 82.519C128.616 72.118 128.649 60.0435 128.879 49.6396C126.513 49.5888 124.277 49.5419 121.905 49.614C121.878 45.4821 121.876 41.3501 121.898 37.2183L125.262 37.1225Z"/><path fill="#171618" d="M69.44 37.2921C73.5507 37.1888 77.8421 37.2547 81.9673 37.2627C81.8384 42.521 82.2576 81.4993 81.6094 82.6662C77.5814 82.65 73.3577 82.5737 69.3488 82.7105C69.5597 72.2683 69.2681 61.6126 69.3901 51.1707C69.4279 47.9398 69.0752 39.9631 69.44 37.2921Z"/><path fill="#171618" fill-opacity="0.96078432" d="M220.386 81.5012C220.247 82.3511 220.404 82.1227 219.846 82.6369C216.87 82.5668 195.676 82.7771 195.119 82.4196C195.417 82.2203 195.74 81.8902 196.129 81.8834C201.447 81.7907 206.781 81.9603 212.102 81.9138C214.927 81.8891 217.59 81.9871 220.386 81.5012Z"/><path fill="#171618" fill-opacity="0.96470588" d="M264.067 82.4437C265.426 81.3278 277.971 81.8169 280.058 82.3562C277.941 82.5888 265.245 82.9961 264.067 82.4437Z"/><path fill="#171618" d="M384.482 5.18228C390.804 0.256282 399.056 -1.42476 406.27 2.51184C409.217 4.49308 410.71 7.00833 411.393 10.4848C411.58 11.4838 411.75 12.4862 411.902 13.4914L411.882 13.8455C413.87 16.931 414.082 19.0897 413.371 22.7918C412.85 25.5073 410.023 32.0927 408.266 34.1578C408.689 34.1534 409.851 33.9393 410.352 33.8897C417.163 33.2154 421.421 34.3937 426.683 38.5083C435.945 32.7873 445.624 30.6766 455.787 35.6397C459.764 33.696 461.843 33.3898 466.205 33.139C469.889 33.379 472.447 33.7027 475.633 35.8348C480.885 32.9661 488.163 31.853 493.453 35.2074C498.314 39.5051 497.22 41.3866 497.865 46.8174C498.677 47.9609 499.284 48.84 500 50.0576L500 57.9842C499.29 59.5616 498.793 61.4709 498.206 63.1354C497.345 65.5502 496.359 67.9183 495.25 70.2299C487.397 86.7744 464.981 114.848 444.377 101.755C434.399 105.917 425.613 105.976 418.158 97.1926C408.191 104.989 395.009 107.012 384.057 100.111C377.604 103.627 371.859 105.469 364.363 103.51C363.107 103.182 360.308 101.806 359.441 100.927C356.877 99.3604 355.565 97.269 354.211 94.7096C349.872 105.777 340.968 119.331 329.829 124.442C328.357 125.117 322.737 126.686 322.209 127L318.081 127C310.162 124.133 306.15 122.58 305.419 112.964C303.283 106.176 306.016 104.664 306.649 97.8419C307.285 90.999 311.155 86.8745 316.5 82.8879C316.877 82.7742 317.49 82.2707 317.832 82.016C319.036 81.2151 321.304 80.0179 322.678 79.1972C325.689 73.4718 328.213 67.329 331.269 61.5633C326.179 56.3258 330.008 54.4058 331.141 49.0802C333.191 39.4356 334.229 38.219 342.721 33.395C344.172 30.9927 345.58 27.4519 346.832 24.8296C353.785 10.2717 367.845 -1.26149 384.482 5.18228Z"/><defs><linearGradient id="gradient_0" gradientUnits="userSpaceOnUse" x1="459.4158" y1="109.6477" x2="406.69937" y2="49.321888"><stop offset="0" stop-color="#FFBCA3"/><stop offset="1" stop-color="#CDDEBD"/></linearGradient></defs><path fill="url(#gradient_0)" d="M443.29 94.9691C445.231 96.5327 448.319 97.9186 450.801 98.256C465.196 100.123 476.657 88.9197 484.342 78.1645C491.502 68.1454 495.824 59.0351 497.865 46.8174C498.677 47.9609 499.284 48.84 500 50.0576L500 57.9842C499.29 59.5616 498.793 61.4709 498.206 63.1354C497.345 65.5502 496.359 67.9183 495.25 70.2299C487.397 86.7744 464.981 114.848 444.377 101.755C434.399 105.917 425.613 105.976 418.158 97.1926C408.191 104.989 395.009 107.012 384.057 100.111C377.604 103.627 371.859 105.469 364.363 103.51C363.107 103.182 360.308 101.806 359.441 100.927C358.43 98.8357 353.551 96.1442 356.252 93.7488C357.041 93.0496 357.723 94.7763 359.417 95.2016C367.894 100.184 375.824 98.3437 383.932 93.5058C387.315 96.2737 391.476 97.918 395.838 98.2096C403.897 98.7926 412.096 95.2831 418.113 90.0603C423.731 100.034 434.156 99.7324 443.29 94.9691Z"/><path fill="#A7D4C6" d="M354.086 85.0359C354.983 89.9249 355.623 91.7342 359.417 95.2016C357.723 94.7763 357.041 93.0496 356.252 93.7488C353.551 96.1442 358.43 98.8357 359.441 100.927C356.877 99.3604 355.565 97.269 354.211 94.7096C349.872 105.777 340.968 119.331 329.829 124.442C328.357 125.117 322.737 126.686 322.209 127L318.081 127C310.162 124.133 306.15 122.58 305.419 112.964C307.399 115.395 308.829 117.103 311.782 118.47C316.119 120.477 322.945 120.047 327.309 118.34C340.903 113.022 348.433 97.4994 354.086 85.0359Z"/><path fill="#A7D4C6" d="M411.882 13.8455C413.87 16.931 414.082 19.0897 413.371 22.7918C412.85 25.5073 410.023 32.0927 408.266 34.1578C407.358 34.395 403.808 35.9044 402.799 36.3158C405.519 30.2251 410.785 19.9554 411.882 13.8455Z"/><path fill="#FEFEFC" d="M398.367 6.8428C401.227 6.71176 402.788 7.65001 404.493 9.82362C401.24 18.7947 377.974 67.1017 377.996 70.9241C378 71.5962 378.2 71.7561 378.652 72.1872C381.358 73.0162 386.719 68.8366 387.497 66.3177C390.95 55.1316 397.08 44.2831 408.898 40.468C415.8 38.2401 422.526 40.7977 424.703 48.0732C431.287 42.564 443.526 35.4179 451.809 41.4758C450.13 46.3866 438.919 67.5369 439.433 70.6115C439.519 71.125 439.826 71.5563 440.263 71.834C440.833 72.1965 441.461 72.3003 442.118 72.1645C449.271 70.6872 455.495 47.4256 459.637 41.1185C463.445 38.9518 467.951 38.2105 471.452 41.2921C469.553 46.3424 457.935 69.0881 460.967 72.26C465.379 74.6135 471.333 67.0891 473.203 63.7695C474.717 61.0804 478.144 55.813 475.455 52.9897C472.432 49.8147 473.136 47.7891 475.253 44.3163C477.429 41.7814 479.525 40.6163 482.647 39.6606C485.062 38.921 490.387 39.0097 490.779 42.2553C491.481 48.0602 487.168 55.7689 484.112 60.5986C477.934 70.2464 469.425 81.4752 457.997 84.7607C452.699 86.2838 447.654 84.1189 446.366 78.5133C441.835 81.8726 434.289 87.2786 428.701 84.2647C419.417 79.2579 432.399 56.5107 435.659 50.0279C432.033 51.6334 428.649 53.7353 425.602 56.2733C424.523 61.1731 423.61 65.4824 421.219 69.961C417.872 76.26 411.973 82.1476 404.959 84.1602C397.674 86.2508 390.084 85.5204 387.617 77.1658C382.758 80.622 378.211 83.9435 372.147 84.7823C367.414 85.437 363.142 83.8446 362.572 78.6628C362.251 75.7392 362.784 73.7786 363.781 71.0546C365.562 66.1927 367.764 61.4947 369.871 56.7721L379.87 34.3905L386.861 18.6902C389.898 11.9172 390.16 7.7879 398.367 6.8428Z"/><path fill="#171618" d="M410.119 51.3065C416.494 51.5011 412.499 61.4921 411.169 64.6172C409.473 68.6015 407.324 71.8383 403.204 73.479C398.031 72.4867 399.334 67.222 400.574 63.4991C402.01 59.1878 405.244 52.3627 410.119 51.3065Z"/><path fill="#FEFEFC" d="M373.259 9.81495C376.937 9.35145 380.685 9.85242 382.194 13.8227C383.305 16.7477 381.589 21.415 379.622 23.6377C377.042 26.5879 372.601 25.442 369.503 26.5564C365.744 27.9091 363.755 35.1019 362.132 38.6037L371.854 38.4879C367.857 48.2655 368.587 48.5114 357.788 49.0316C355.448 54.0842 353.266 59.2811 350.981 64.3735L344.218 79.352C340.094 88.437 336.092 99.1087 326.072 102.922C323.39 103.8 319.945 104.202 317.323 102.993C315.81 102.294 314.49 100.759 313.935 99.1959C312.722 95.7805 315.007 92.2294 317.513 90.1158C320.542 87.5605 324.767 86.491 327.502 83.7314C329.565 81.6502 341.462 54.3102 343.828 49.3444C333.209 47.7347 339.7 39.3309 348.172 38.8531C349.724 34.7962 351.816 30.6711 353.544 26.6614C357.13 18.3392 364.105 11.5525 373.259 9.81495Z"/><path fill="#171618" d="M0 37.3757L10.1473 37.3778C16.3853 37.3591 22.9295 36.8465 27.7127 41.6784C30.9735 44.9723 31.9891 48.9968 32.0053 53.4718C32.0437 64.0816 25.2781 70.8768 14.5828 70.8071C13.9106 70.7982 13.2389 70.7678 12.5687 70.7161C12.5689 74.4906 12.4613 78.9377 12.6416 82.6585C8.65259 82.6952 3.98448 82.7699 0 82.6547L0 37.3757ZM17.8153 57.8028C19.7411 55.2929 20.6913 52.2656 17.8176 49.9755C16.1688 48.6616 14.4852 48.7334 12.4822 48.7397C12.4728 52.9592 10.6403 62.7976 17.8153 57.8028Z"/><path fill="#171618" d="M316.406 37.3142C320.736 37.021 325.961 37.3783 330.546 37.1656C328.054 42.1014 318.636 59.5753 317.943 63.6757C317.199 68.0726 317.75 77.1747 317.832 82.016C317.49 82.2707 316.877 82.7742 316.5 82.8879C315.92 82.4624 306.53 82.611 305.227 82.6008C305.424 78.0581 305.942 64.2381 304.201 60.5155C300.602 52.8203 296.195 45.0007 292.614 37.2134C296.971 37.4089 302.17 37.2127 306.672 37.3076C308.357 40.4314 310.044 44.3954 311.625 47.6881C312.933 44.461 314.768 40.3466 316.406 37.3142Z"/></svg>